<svg xmlns="http://www.w3.org/2000/svg" viewBox="0 0 1024 1024"><defs><style>.a{fill:none;stroke:#000;stroke-miterlimit:10;stroke-width:75px;}</style></defs><title>logo__black</title><path d="M512,40A472.14,472.14,0,0,1,695.71,946.92,472.13,472.13,0,0,1,328.29,77.08,469,469,0,0,1,512,40m0-40C229.23,0,0,229.23,0,512s229.23,512,512,512,512-229.23,512-512S794.77,0,512,0Z"/><rect x="474" y="208" width="76" height="544"/><path class="a" d="M512.5,245.5H659.2A133.12,133.12,0,0,1,792.32,378.62v.75A133.12,133.12,0,0,1,659.2,512.5H512.5a0,0,0,0,1,0,0v-267A0,0,0,0,1,512.5,245.5Z"/><polygon points="474.51 208 549.72 208 239.34 752 164.13 752 474.51 208"/><polygon points="568 474 568 550 312.38 550 356.93 474 568 474"/></svg>