<svg xmlns="http://www.w3.org/2000/svg" viewBox="0 0 693.75 693.75"><defs><style>.a,.b{fill:none;stroke:#000;stroke-miterlimit:10;}.a{stroke-width:50px;}.b{stroke-width:40px;}</style></defs><title>Logo_Black</title><rect x="321.83" y="144.75" width="50.08" height="362"/><path class="a" d="M346.91,169.58H449.33a84.17,84.17,0,0,1,84.17,84.17v9a84.17,84.17,0,0,1-84.17,84.17H346.91a0,0,0,0,1,0,0V169.58A0,0,0,0,1,346.91,169.58Z"/><polygon points="321.87 144.59 371.95 144.59 151.95 506.58 101.87 506.58 321.87 144.59"/><polygon points="384.25 321.83 384.25 371.92 207.25 371.92 236.91 321.83 384.25 321.83"/><circle class="b" cx="346.88" cy="346.88" r="326.88"/></svg>