<svg xmlns="http://www.w3.org/2000/svg" viewBox="0 0 1024 1024"><defs><style>.a{fill:#fff;}.b{fill:#af1c38;}.c{fill:none;stroke:#af1c38;stroke-miterlimit:10;stroke-width:75px;}</style></defs><title>logo__primary-bg</title><path class="a" d="M512.32,1003.61A492.14,492.14,0,0,1,320.82,58.27,492.13,492.13,0,0,1,703.83,965,488.9,488.9,0,0,1,512.32,1003.61Z"/><path class="b" d="M512.32,39.61A472.14,472.14,0,0,1,696,946.54,472.13,472.13,0,0,1,328.61,76.69,469,469,0,0,1,512.32,39.61m0-40c-282.77,0-512,229.23-512,512s229.23,512,512,512,512-229.23,512-512-229.23-512-512-512Z"/><rect class="b" x="475" y="208" width="75" height="544"/><path class="c" d="M659.52,511.5h-147v-266h147c73.22,0,133.12,59.84,133.12,133.06v-.09C792.65,451.69,732.74,511.5,659.52,511.5Z"/><polygon class="b" points="474.83 208 550.04 208 239.66 751 164.45 751 474.83 208"/><polygon class="b" points="569 474 569 549 312.71 549 357.25 474 569 474"/></svg>