<svg xmlns="http://www.w3.org/2000/svg" viewBox="0 0 1426.7 2209.5"><defs><style>.a{fill:#af1c38;}.b{fill:#fff;}.c{fill:none;stroke:#af1c38;stroke-miterlimit:10;stroke-width:75px;}</style></defs><title>logo__primary-picker</title><path class="a" d="M712.61,2208.28c0,.41.81,1.22.81,1.22s711.2-1092,711.2-1450.81c0-528.12-360.47-757.88-712-758.69C361.08.81.61,230.57.61,758.69c0,358.85,711.6,1450.81,711.6,1450.81Z"/><path class="b" d="M714.32,1203.61A490.4,490.4,0,1,1,905.83,1165,488.91,488.91,0,0,1,714.32,1203.61Z"/><path class="a" d="M714.32,239.61a470.4,470.4,0,1,1-183.71,37.08,469,469,0,0,1,183.71-37.08m0-40c-282.77,0-512,229.23-512,512s229.23,512,512,512,512-229.23,512-512-229.23-512-512-512Z"/><rect class="a" x="677.4" y="407.6" width="75" height="544"/><path class="c" d="M861.52,711.1H714.9v-266H861.52c73.22,0,133.38,60.24,133.38,133.46v-.09C994.9,651.69,934.74,711.1,861.52,711.1Z"/><polygon class="a" points="676.83 407.6 752.04 407.6 441.66 950.6 366.45 950.6 676.83 407.6"/><polygon class="a" points="771.4 673.6 771.4 748.6 514.71 748.6 559.25 673.6 771.4 673.6"/></svg>